<?xml version="1.0" encoding="UTF-8" standalone="no"?>
<!-- Created with Inkscape (http://www.inkscape.org/) -->

<svg
   xmlns:dc="http://purl.org/dc/elements/1.1/"
   xmlns:cc="http://creativecommons.org/ns#"
   xmlns:rdf="http://www.w3.org/1999/02/22-rdf-syntax-ns#"
   xmlns:svg="http://www.w3.org/2000/svg"
   xmlns="http://www.w3.org/2000/svg"
   xmlns:xlink="http://www.w3.org/1999/xlink"
   xmlns:sodipodi="http://sodipodi.sourceforge.net/DTD/sodipodi-0.dtd"
   xmlns:inkscape="http://www.inkscape.org/namespaces/inkscape"
   width="75.019997mm"
   height="123.156mm"
   viewBox="0 0 75.019997 123.156"
   version="1.1"
   id="svg2354"
   inkscape:version="0.92.3 (2405546, 2018-03-11)"
   sodipodi:docname="smoke-2-smartphone.svg">
  <defs
     id="defs2348">
    <linearGradient
       inkscape:collect="always"
       id="linearGradient2926">
      <stop
         style="stop-color:#002d9a;stop-opacity:1;"
         offset="0"
         id="stop2922" />
      <stop
         id="stop2930"
         offset="0.45540217"
         style="stop-color:#b8319f;stop-opacity:1" />
      <stop
         style="stop-color:#4ed1b8;stop-opacity:1"
         offset="1"
         id="stop2924" />
    </linearGradient>
    <linearGradient
       inkscape:collect="always"
       xlink:href="#linearGradient2926"
       id="linearGradient2928"
       x1="42.509624"
       y1="271.64374"
       x2="109.05418"
       y2="167.14934"
       gradientUnits="userSpaceOnUse"
       gradientTransform="translate(-42.333337,26.192414)" />
  </defs>
  <sodipodi:namedview
     id="base"
     pagecolor="#ffffff"
     bordercolor="#666666"
     borderopacity="1.0"
     inkscape:pageopacity="0.0"
     inkscape:pageshadow="2"
     inkscape:zoom="0.7"
     inkscape:cx="307.89619"
     inkscape:cy="263.10584"
     inkscape:document-units="mm"
     inkscape:current-layer="layer1"
     showgrid="false"
     inkscape:window-width="1024"
     inkscape:window-height="547"
     inkscape:window-x="0"
     inkscape:window-y="28"
     inkscape:window-maximized="1" />
  <metadata
     id="metadata2351">
    <rdf:RDF>
      <cc:Work
         rdf:about="">
        <dc:format>image/svg+xml</dc:format>
        <dc:type
           rdf:resource="http://purl.org/dc/dcmitype/StillImage" />
        <dc:title></dc:title>
      </cc:Work>
    </rdf:RDF>
  </metadata>
  <g
     inkscape:label="Capa 1"
     inkscape:groupmode="layer"
     id="layer1"
     transform="translate(0,-173.844)">
    <path
       style="fill:url(#linearGradient2928);fill-opacity:1;stroke:none;stroke-width:0.26458332px;stroke-linecap:butt;stroke-linejoin:miter;stroke-opacity:1"
       d="m 0.17629376,297.83615 c 0,0 0.06505,-2.31881 2.10452274,-3.28191 2.0394768,-0.96308 6.4016914,-0.62316 8.0446035,-4.36222 1.642912,-3.73903 1.303,-4.13559 1.019739,-6.28839 -0.28326,-2.15277 -2.8209551,-5.77852 -1.178043,-8.78107 1.642912,-3.00258 3.160868,-3.51245 4.293912,-3.6824 1.133043,-0.16996 3.569086,-0.56652 4.135608,-2.20944 0.566521,-1.64291 0.849783,-3.45578 -0.566522,-6.11843 -1.416304,-2.66265 -4.70213,-7.08152 -4.135608,-16.20252 0.566522,-9.121 6.968217,-9.06435 9.517564,-13.53987 2.549348,-4.47552 3.682393,-8.04461 1.472957,-15.01282 -2.209435,-6.96822 -6.288391,-9.91413 -11.387086,-10.36735 -5.0986938,-0.45322 -7.5913876,-4.07896 -7.8179963,-8.04461 -0.226608,-3.96565 0.5098697,-8.83774 4.3622153,-12.97334 3.852346,-4.13561 12.860041,-10.53731 24.473734,-11.95361 11.613695,-1.41631 23.963867,1.86952 31.272003,5.15535 7.308148,3.28582 9.517584,9.06434 9.404284,11.21712 l -0.045,106.44551 H 0.17629276"
       id="path2222"
       inkscape:connector-curvature="0"
       sodipodi:nodetypes="cscscccsssssscscccc" />
  </g>
</svg>
